<svg width="15" height="14" viewBox="0 0 15 14" fill="none" xmlns="http://www.w3.org/2000/svg">
<path d="M1.82216 6.34662C1.32855 6.34662 0.928467 6.74631 0.928467 7.23944C0.928467 7.73258 1.32855 8.13227 1.82216 8.13227H13.4412C13.9348 8.13227 14.3349 7.73258 14.3349 7.23944C14.3349 6.74631 13.9348 6.34662 13.4412 6.34662H1.82216Z" fill="white"/>
<path d="M8.52563 1.43555C8.52563 0.942419 8.12555 0.542725 7.63194 0.542725C7.13833 0.542725 6.73825 0.942419 6.73825 1.43555L6.73825 13.0433C6.73825 13.5365 7.13833 13.9362 7.63194 13.9362C8.12555 13.9362 8.52563 13.5365 8.52563 13.0433L8.52563 1.43555Z" fill="white"/>
</svg>
