<svg width="19" height="11" viewBox="0 0 19 11" fill="none" xmlns="http://www.w3.org/2000/svg">
<path d="M1.15403 4.97451H15.9382L13.261 2.39156C13.2413 2.37123 13.2298 2.3448 13.2283 2.31696V1.10572C13.2293 1.06318 13.2559 1.02533 13.2962 1.00844C13.337 0.991549 13.3845 1.00047 13.4155 1.03112L17.9673 5.42665C17.9882 5.44636 18 5.47326 18 5.50125C18 5.5294 17.9882 5.5563 17.9673 5.57585L13.418 9.96899C13.3858 9.99948 13.338 10.0084 13.2964 9.99166C13.2553 9.97446 13.2286 9.93537 13.2286 9.8922V8.68316C13.2289 8.65516 13.2405 8.62826 13.2613 8.60856L15.9362 6.0256H1.1545C1.06915 6.0256 1 5.95882 1 5.87641V5.12385C1 5.08428 1.01636 5.04644 1.04535 5.01845C1.07417 4.99045 1.11353 4.97465 1.1545 4.97465L1.15403 4.97451Z" fill="#34A853" stroke="#34A853"/>
</svg>
