<svg width="23" height="23" viewBox="0 0 23 23" fill="none" xmlns="http://www.w3.org/2000/svg">
<path d="M1.69537 23C1.33907 23 0.982769 22.864 0.71085 22.5921C0.167021 22.0487 0.167021 21.1665 0.71085 20.6227L20.6227 0.710854C21.1666 0.167025 22.0475 0.167025 22.5921 0.710854C23.1359 1.25429 23.1359 2.13646 22.5921 2.68024L2.68024 22.5921C2.40793 22.8644 2.05167 23 1.69537 23Z" fill="#202020"/>
<path d="M21.6072 23C21.2509 23 20.8946 22.864 20.6227 22.5921L0.71085 2.68024C0.167021 2.1368 0.167021 1.25463 0.71085 0.710854C1.25468 0.167076 2.13566 0.167026 2.68024 0.710854L22.5911 20.6227C23.1349 21.1662 23.1349 22.0483 22.5911 22.5921C22.3192 22.8644 21.9629 23 21.6066 23H21.6072Z" fill="#202020"/>
</svg>
