<svg width="18" height="17" viewBox="0 0 18 17" fill="none" xmlns="http://www.w3.org/2000/svg">
<path d="M11.9699 3.1623C11.7157 3.1623 11.5092 2.95644 11.5092 2.70206C11.5092 2.44812 11.7157 2.24182 11.9699 2.24182H13.5459C14.4736 2.24182 15.3165 2.62034 15.9273 3.23063C16.5381 3.84092 16.9175 4.68302 16.9175 5.60965V12.6171C16.9175 13.5439 16.5382 14.386 15.9273 14.9961C15.3164 15.6064 14.4735 15.9854 13.5459 15.9854H4.56491C3.63727 15.9854 2.79435 15.6065 2.18358 14.9961C1.5727 14.3858 1.19336 13.5437 1.19336 12.6171V5.60965C1.19336 4.6829 1.57267 3.8408 2.18358 3.23063C2.79447 2.62034 3.63738 2.24182 4.56491 2.24182H6.14095C6.39513 2.24182 6.60163 2.44768 6.60163 2.70206C6.60163 2.95644 6.39513 3.1623 6.14095 3.1623H4.56491C3.89145 3.1623 3.2791 3.43782 2.83487 3.88174C2.39051 4.32566 2.11473 4.93787 2.11473 5.6101V12.6176C2.11473 13.2904 2.39051 13.9021 2.83487 14.3459C3.27922 14.7899 3.89145 15.0654 4.56491 15.0654H13.5459C14.2194 15.0654 14.8317 14.7899 15.276 14.3459C15.7203 13.902 15.9961 13.2904 15.9961 12.6176V5.6101C15.9961 4.93775 15.7203 4.32554 15.276 3.88174C14.8316 3.43782 14.2194 3.1623 13.5459 3.1623H11.9699ZM8.59485 10.9429V1.46024C8.59485 1.2063 8.80136 1 9.05554 1C9.30972 1 9.51622 1.20586 9.51622 1.46024V10.9429L11.8254 8.41138C11.9963 8.22386 12.2871 8.20988 12.4748 8.38063C12.6625 8.55137 12.6765 8.84187 12.5055 9.02985C11.498 10.134 10.3418 11.3046 9.39525 12.4391C9.38563 12.4497 9.37556 12.4598 9.36492 12.4694C9.17722 12.6402 8.88644 12.6266 8.71553 12.4391L5.60524 9.02985C5.43433 8.84233 5.44831 8.55183 5.63602 8.38063C5.82372 8.20988 6.11449 8.22386 6.28541 8.41138L8.59456 10.9429H8.59485Z" fill="#151515" stroke="black" stroke-width="0.7"/>
</svg>
