<svg width="25" height="25" viewBox="0 0 25 25" fill="none" xmlns="http://www.w3.org/2000/svg">
<path d="M14.1884 25H10.1282C9.41259 25 8.72612 24.7157 8.22009 24.2097C7.71406 23.7037 7.42975 23.0172 7.42975 22.3016C7.43229 22.1585 7.39619 22.0172 7.32526 21.8929C7.25412 21.7688 7.1509 21.666 7.02635 21.5955C6.77895 21.4431 6.46677 21.4431 6.21932 21.5955C5.59932 21.9607 4.85838 22.0607 4.16391 21.8728C3.47425 21.682 2.88613 21.2297 2.52477 20.612L0.494697 17.0939C0.137736 16.4749 0.0408469 15.7399 0.22534 15.0496C0.409627 14.3594 0.86031 13.7704 1.4782 13.412C1.60507 13.3431 1.71104 13.2412 1.78429 13.1166C1.85754 12.9923 1.89575 12.8502 1.89427 12.7059C1.89596 12.5646 1.85944 12.4255 1.78831 12.3033C1.71717 12.1813 1.61436 12.0806 1.49088 12.0124C0.869848 11.6536 0.416399 11.0634 0.229582 10.3707C0.0429765 9.67836 0.138178 8.94012 0.494713 8.31785L2.52478 4.79974C2.88617 4.18206 3.47427 3.72969 4.16392 3.53888C4.86288 3.36874 5.60063 3.4918 6.20669 3.87937C6.37282 3.98555 6.57188 4.02819 6.76693 3.99949C6.96219 3.97099 7.14035 3.87283 7.26912 3.72337C7.39789 3.57392 7.46818 3.38309 7.46755 3.18572C7.46417 2.46801 7.74704 1.77835 8.25345 1.26962C8.75987 0.760882 9.44823 0.474854 10.166 0.474854H14.2262C14.942 0.474854 15.6282 0.758985 16.1343 1.26519C16.6403 1.77118 16.9246 2.45742 16.9246 3.17329C16.9221 3.31641 16.9582 3.45742 17.0291 3.58176C17.1002 3.70609 17.2035 3.80889 17.3282 3.8794C17.5756 4.03181 17.8878 4.03181 18.1353 3.8794C18.755 3.514 19.496 3.41393 20.1905 3.60202C20.8801 3.79285 21.4682 4.24521 21.8296 4.86288L23.8597 8.381L23.8599 8.38079C24.2166 8.99971 24.3135 9.73498 24.1292 10.4252C23.9447 11.1153 23.4943 11.7043 22.8762 12.0629C22.7493 12.1315 22.6433 12.2337 22.5701 12.358C22.4968 12.4826 22.4588 12.6246 22.4601 12.769C22.4584 12.9102 22.4951 13.0494 22.5661 13.1714C22.6372 13.2936 22.74 13.3941 22.8637 13.4625C23.4845 13.8213 23.938 14.4115 24.1248 15.1039C24.3114 15.7965 24.2162 16.5347 23.8599 17.157L21.8298 20.6751L21.8296 20.6749C21.4682 21.2926 20.8801 21.745 20.1904 21.936C19.5002 22.1247 18.7628 22.0245 18.1477 21.6586C17.9815 21.5524 17.7827 21.5096 17.5874 21.5383C17.3922 21.567 17.214 21.665 17.0852 21.8144C16.9567 21.9639 16.8862 22.1549 16.8868 22.3521C16.8735 23.059 16.5835 23.7324 16.079 24.2276C15.5742 24.7229 14.8953 25.0002 14.1884 25ZM6.62277 19.5906C7.09668 19.5925 7.56194 19.7185 7.9721 19.9564C8.38331 20.191 8.72509 20.5304 8.96211 20.9403C9.19917 21.3501 9.32308 21.8155 9.32118 22.289C9.32118 22.5043 9.40583 22.7108 9.55677 22.8643C9.7077 23.0175 9.91309 23.1053 10.1282 23.1087H14.1884C14.4024 23.1087 14.6076 23.0236 14.759 22.8723C14.9104 22.7209 14.9954 22.5158 14.9954 22.3017C14.9927 21.8263 15.1162 21.3587 15.353 20.9467C15.5901 20.5346 15.9323 20.1929 16.3445 19.9565C16.7532 19.7145 17.2191 19.5868 17.6939 19.5868C18.1686 19.5868 18.6345 19.7145 19.043 19.9565C19.2283 20.0662 19.45 20.0973 19.6583 20.0428C19.8667 19.9883 20.0448 19.8528 20.1527 19.6664L22.2459 16.1483C22.355 15.9649 22.3858 15.7453 22.3312 15.5389C22.2767 15.3327 22.1414 15.1568 21.9558 15.0513C21.4051 14.7346 20.9838 14.2335 20.7661 13.6365C20.5484 13.0395 20.5485 12.3849 20.7661 11.7879C20.9837 11.1912 21.4051 10.6901 21.9558 10.3732C22.1422 10.2653 22.2778 10.0874 22.3322 9.87901C22.3867 9.67045 22.3557 9.44901 22.2459 9.26366L20.1527 5.74554C20.0446 5.55999 19.8681 5.42405 19.6608 5.36726C19.4554 5.31322 19.237 5.3451 19.0556 5.4555C18.2195 5.93531 17.1917 5.9351 16.356 5.45486C15.52 4.97463 15.002 4.08679 14.9955 3.12293C14.9955 2.90761 14.9108 2.70116 14.7599 2.54767C14.6089 2.39442 14.4035 2.3066 14.1885 2.30323H10.1283C9.91422 2.30323 9.70903 2.3883 9.55766 2.53965C9.40628 2.69101 9.32123 2.89619 9.32123 3.11026C9.32397 3.58565 9.20048 4.05321 8.96364 4.46526C8.72658 4.87732 8.38438 5.21907 7.97211 5.45549C7.56343 5.69741 7.09753 5.82511 6.62278 5.82511C6.14804 5.82511 5.68216 5.6974 5.27367 5.45549C5.08833 5.34573 4.86669 5.31469 4.65832 5.36915C4.44997 5.42361 4.27181 5.55913 4.16394 5.74553L2.13387 9.26365C2.02474 9.44708 1.99392 9.66662 2.04838 9.87305C2.10305 10.0793 2.23836 10.2551 2.42392 10.3607C2.97464 10.6773 3.39599 11.1785 3.61366 11.7754C3.8313 12.3724 3.8313 13.027 3.61366 13.624C3.39603 14.2208 2.97469 14.7219 2.42392 15.0388C2.23541 15.1445 2.09714 15.3216 2.04014 15.5302C1.98336 15.7388 2.01249 15.9615 2.1212 16.1483L4.15127 19.6664C4.25935 19.852 4.43604 19.9879 4.64312 20.0447C4.84852 20.0987 5.067 20.0669 5.24832 19.9565C5.66713 19.7177 6.14063 19.5917 6.62277 19.5906Z" fill="white"/>
<path d="M12.1581 17.4344C10.904 17.4344 9.70142 16.9362 8.81462 16.0494C7.92782 15.1626 7.42963 13.96 7.42963 12.7059C7.42963 11.4518 7.92781 10.2492 8.81462 9.36241C9.70143 8.47561 10.904 7.97742 12.1581 7.97742C13.4122 7.97742 14.6148 8.4756 15.5016 9.36241C16.3884 10.2492 16.8866 11.4518 16.8866 12.7059C16.8866 13.96 16.3885 15.1626 15.5016 16.0494C14.6148 16.9362 13.4122 17.4344 12.1581 17.4344ZM12.1581 9.86882C11.4056 9.86882 10.6841 10.1677 10.1519 10.6997C9.61993 11.2319 9.32103 11.9534 9.32103 12.7059C9.32103 13.4585 9.61993 14.18 10.1519 14.7122C10.6841 15.2441 11.4056 15.543 12.1581 15.543C12.9107 15.543 13.6322 15.2441 14.1644 14.7122C14.6963 14.18 14.9952 13.4585 14.9952 12.7059C14.9952 11.9534 14.6963 11.2319 14.1644 10.6997C13.6322 10.1677 12.9107 9.86882 12.1581 9.86882Z" fill="white"/>
</svg>
