<svg width="20" height="20" viewBox="0 0 24 22" fill="none" xmlns="http://www.w3.org/2000/svg">
<path d="M11.8071 16.0752C11.9522 16.0752 12.0915 16.0176 12.194 15.9151C12.2967 15.8124 12.3543 15.6733 12.3543 15.5281V2.7783L16.4857 6.90976C16.7035 7.07313 17.0083 7.05136 17.2009 6.8588C17.3934 6.66623 17.4152 6.36143 17.2518 6.14368L12.1082 1H11.5062L6.36255 6.14368C6.23564 6.23872 6.15644 6.38434 6.14518 6.54255C6.13392 6.70077 6.19194 6.85612 6.30396 6.96833C6.41618 7.08055 6.57154 7.13838 6.72974 7.12712C6.88796 7.11586 7.03358 7.03665 7.12862 6.90974L11.2601 2.77829V15.528C11.2601 15.6733 11.3177 15.8124 11.4204 15.9151C11.5229 16.0176 11.6622 16.0752 11.8072 16.0752L11.8071 16.0752Z" fill="white" stroke="white"/>
<path d="M22.6144 13.2571C22.6144 12.955 22.3695 12.71 22.0672 12.71C21.7649 12.71 21.5201 12.955 21.5201 13.2571V18.264C21.5201 18.6993 21.3472 19.1169 21.0391 19.4247C20.7313 19.7326 20.3137 19.9057 19.8784 19.9057H3.73599C3.30066 19.9057 2.88309 19.7326 2.57524 19.4247C2.26721 19.1169 2.0943 18.6993 2.0943 18.264V13.2571C2.0943 12.955 1.84944 12.71 1.54715 12.71C1.24486 12.71 1 12.955 1 13.2571V18.264C1 18.9896 1.28818 19.6856 1.80135 20.1986C2.31435 20.7118 3.01037 21 3.736 21H19.8784C20.604 21 21.3 20.7118 21.813 20.1986C22.3262 19.6856 22.6144 18.9896 22.6144 18.264L22.6144 13.2571Z" fill="white" stroke="white"/>
</svg>
